<svg width="130" height="60" fill="none" xmlns="http://www.w3.org/2000/svg"><path d="M127.035 15.675c.93 0 1.656.282 2.179.847.523.564.784 1.353.784 2.368 0 1.32-.342 2.423-1.027 3.308-.685.885-1.596 1.327-2.733 1.327-.913 0-1.629-.282-2.147-.846-.519-.565-.779-1.364-.779-2.397 0-1.34.349-2.442 1.046-3.308.697-.866 1.59-1.3 2.677-1.3zm-.075 1.492c-.531 0-.981.306-1.351.919-.369.612-.554 1.359-.554 2.239 0 .545.117.966.349 1.263.232.296.556.445.971.445.415 0 .772-.184 1.071-.553a3.18 3.18 0 00.622-1.248c.117-.465.175-.931.175-1.4 0-.526-.113-.935-.337-1.227-.224-.292-.539-.438-.946-.438zM118.292 15.89l-.199 1.061c.622-.841 1.369-1.263 2.241-1.263.564 0 1.025.173 1.381.517.357.345.536.785.536 1.32 0 .402-.046.838-.137 1.307l-.822 4.463h-1.793l.81-4.363c.049-.249.074-.483.074-.703 0-.287-.079-.51-.236-.668-.158-.157-.378-.236-.66-.236-.481 0-.865.189-1.152.567-.286.378-.483.858-.591 1.442l-.735 3.961h-1.755l1.357-7.406h1.681zM115.359 13.077l-.312 1.68h-1.755l.299-1.68h1.768zm-.523 2.813l-1.357 7.406h-1.768l1.357-7.406h1.768zM111.193 18.057h-1.631c0-.708-.353-1.062-1.059-1.062-.307 0-.554.071-.74.215a.687.687 0 00-.28.574c0 .268.099.46.298.574.199.115.677.292 1.432.53 1.087.345 1.631 1.03 1.631 2.053 0 .594-.16 1.091-.479 1.493-.32.402-.696.682-1.127.84a4.03 4.03 0 01-1.395.236c-.871 0-1.554-.213-2.047-.638-.494-.426-.741-1.012-.741-1.758v-.216h1.643v.058c0 .775.428 1.162 1.282 1.162.341 0 .615-.081.822-.244a.779.779 0 00.311-.646.675.675 0 00-.33-.61c-.22-.138-.649-.318-1.288-.538a1.989 1.989 0 00-.187-.057c-.539-.192-.934-.443-1.183-.754-.249-.31-.373-.71-.373-1.198 0-.737.255-1.318.766-1.744.51-.426 1.205-.639 2.085-.639.813 0 1.45.19 1.911.568.461.377.691.906.691 1.585 0 .096-.004.168-.012.216zM98.51 18.128c.266-1.626 1.3-2.44 3.101-2.44.83 0 1.479.163 1.948.489.469.325.704.774.704 1.349 0 .334-.054.784-.162 1.349l-.511 2.67c-.099.506-.149.913-.149 1.22 0 .21.016.386.05.53h-1.743a3.893 3.893 0 01.012-.732c-.506.641-1.183.962-2.03.962-.63 0-1.132-.184-1.506-.553-.373-.368-.56-.863-.56-1.485 0-.45.083-.837.25-1.163.165-.325.4-.581.703-.768.302-.186.624-.327.965-.423.34-.096.73-.163 1.17-.2.73-.068 1.178-.135 1.344-.202.316-.143.473-.435.473-.875 0-.536-.365-.804-1.095-.804-.365 0-.65.084-.853.251-.203.168-.355.443-.455.825h-1.655zm3.736 1.608a.672.672 0 01-.181.122 1.175 1.175 0 01-.392.136l-.187.036a3.079 3.079 0 01-.224.021l-.187.03c-.265.028-.468.059-.61.093a3.01 3.01 0 00-.492.172.806.806 0 00-.404.351 1.194 1.194 0 00-.124.574c0 .297.087.53.26.697.175.167.416.25.723.25.871 0 1.428-.578 1.668-1.736l.15-.746zM96.702 20.596c-.44 1.952-1.502 2.928-3.187 2.928-1.984 0-2.976-1.076-2.976-3.23 0-1.31.332-2.403.996-3.279.664-.875 1.56-1.313 2.69-1.313.813 0 1.479.232 1.998.696.518.464.778 1.15.778 2.06h-1.706c0-.852-.378-1.277-1.133-1.277-.431 0-.797.179-1.096.538a3.007 3.007 0 00-.616 1.22 5.887 5.887 0 00-.168 1.413c0 1.13.428 1.694 1.282 1.694.68 0 1.146-.483 1.395-1.45h1.743z" fill="#FFE1AF"/><path d="M128.634 32.286h-4.149a.816.816 0 00.023-.213c0-.802-.464-1.203-1.391-1.203-.386 0-.699.098-.939.294a.953.953 0 00-.359.775.918.918 0 00.255.641.535.535 0 00.185.134c.078.035.143.067.197.094a2.46 2.46 0 00.429.133l.22.04c.101.018.167.027.197.027.541.107.935.191 1.183.254.247.062.595.164 1.043.307.448.142.784.303 1.008.481.224.178.467.414.73.708.263.294.448.65.556 1.069.108.419.162.904.162 1.456 0 .926-.181 1.732-.544 2.418a3.968 3.968 0 01-1.484 1.59 7.47 7.47 0 01-1.97.828 8.695 8.695 0 01-2.19.268 9.31 9.31 0 01-1.97-.2 6.99 6.99 0 01-1.808-.669 3.385 3.385 0 01-1.391-1.39c-.34-.614-.51-1.358-.51-2.23 0-.036.004-.098.012-.187.007-.09.011-.178.011-.267h4.219v.16c0 .997.548 1.496 1.645 1.496 1.005 0 1.507-.365 1.507-1.096 0-.106-.011-.209-.035-.307a.526.526 0 00-.139-.254 3.065 3.065 0 00-.197-.187 1.067 1.067 0 00-.29-.16 8.238 8.238 0 00-.347-.133 4.69 4.69 0 00-.429-.12c-.185-.045-.344-.08-.475-.108a23.037 23.037 0 01-.545-.12 34.695 34.695 0 00-.602-.134c-2.148-.48-3.222-1.727-3.222-3.74 0-.909.174-1.693.521-2.352.348-.659.819-1.162 1.414-1.51a6.669 6.669 0 011.889-.748 9.586 9.586 0 012.133-.227c3.631 0 5.447 1.328 5.447 3.982v.4zM108.008 28.252l-.347 1.764c1.081-1.425 2.418-2.138 4.01-2.138 1.097 0 1.981.339 2.654 1.016.672.676 1.008 1.567 1.008 2.672 0 .605-.077 1.327-.232 2.164l-1.53 8.31h-4.636l1.438-7.802c.061-.357.092-.624.092-.802 0-.463-.116-.824-.347-1.082-.232-.258-.557-.388-.974-.388-1.112 0-1.823.856-2.132 2.566l-1.368 7.508h-4.589l2.526-13.788h4.427zM100.717 28.252L98.191 42.04H93.6l2.55-13.788h4.566zM80.716 32.475c.155-.926.425-1.706.811-2.338.386-.632.877-1.109 1.472-1.43a6.532 6.532 0 011.831-.667c.626-.125 1.34-.188 2.144-.188 3.802 0 5.702 1.212 5.702 3.634 0 .588-.1 1.399-.301 2.432l-.835 4.462c-.2 1.158-.301 1.968-.301 2.432 0 .498.046.908.14 1.229h-4.613a2.276 2.276 0 01-.047-.481c0-.196.016-.481.047-.855-.866 1.193-2.14 1.79-3.825 1.79-1.205 0-2.152-.347-2.84-1.042-.687-.695-1.03-1.648-1.03-2.86 0-1.513.463-2.64 1.39-3.38.927-.738 2.287-1.197 4.08-1.375.216-.018.517-.04.903-.067.387-.027.665-.049.835-.067.17-.018.39-.049.66-.093.27-.045.464-.103.58-.174.116-.071.247-.16.394-.267a.742.742 0 00.29-.415c.046-.169.07-.37.07-.6 0-.749-.503-1.123-1.507-1.123-.495 0-.874.107-1.136.32-.263.214-.471.589-.626 1.123h-4.288zm6.907 3.394c-.2.16-.436.28-.707.36a5.16 5.16 0 01-.973.174 5.9 5.9 0 00-.777.107c-.989.213-1.483.74-1.483 1.576 0 .855.448 1.283 1.344 1.283.727 0 1.26-.218 1.6-.655.34-.436.61-1.1.81-1.99l.186-.855zM79.349 28.253l-.65 3.287h-2.456l-.881 4.515c-.14.641-.209 1.087-.209 1.336 0 .285.066.503.197.655.132.151.274.24.43.267.153.027.37.04.648.04.556 0 .974-.018 1.252-.053l-.696 3.74c-.741.143-1.63.214-2.665.214-2.658 0-3.987-1.069-3.987-3.206 0-.41.132-1.3.394-2.672 1.262-6.75.99-5.276 2.388-12.345h4.566l-.788 4.222h2.457zM61.6 28.252l-.254 1.443c.927-1.194 2.07-1.79 3.43-1.79 1.283 0 2.314.52 3.095 1.563.78 1.042 1.17 2.427 1.17 4.155 0 1.05-.123 2.08-.37 3.086a11.6 11.6 0 01-1.079 2.805 5.911 5.911 0 01-1.888 2.098c-.789.534-1.677.801-2.666.801-1.653 0-2.82-.659-3.5-1.977l-1.113 6.065h-4.59l3.339-18.25H61.6zm1.276 3.767c-.897 0-1.55.415-1.96 1.243-.408.828-.613 1.812-.613 2.952 0 .73.15 1.296.452 1.697.301.4.73.601 1.286.601.788 0 1.38-.463 1.773-1.39a7.362 7.362 0 00.591-2.912c0-.677-.135-1.211-.405-1.603a1.292 1.292 0 00-1.124-.588zM41.88 32.475c.155-.926.425-1.706.811-2.338.387-.632.877-1.109 1.472-1.43a6.532 6.532 0 011.831-.667c.626-.125 1.34-.188 2.144-.188 3.802 0 5.702 1.212 5.702 3.634 0 .588-.1 1.399-.301 2.432l-.834 4.462c-.201 1.158-.302 1.968-.302 2.432 0 .498.047.908.14 1.229H47.93a2.276 2.276 0 01-.047-.481c0-.196.016-.481.047-.855-.866 1.193-2.14 1.79-3.825 1.79-1.205 0-2.152-.347-2.84-1.042-.687-.695-1.03-1.648-1.03-2.86 0-1.513.463-2.64 1.39-3.38.927-.738 2.287-1.197 4.08-1.375.216-.018.517-.04.904-.067.386-.027.664-.049.834-.067.17-.018.39-.049.66-.093.27-.045.464-.103.58-.174.116-.071.247-.16.394-.267a.742.742 0 00.29-.415c.046-.169.07-.37.07-.6 0-.749-.503-1.123-1.507-1.123-.495 0-.873.107-1.136.32-.263.214-.471.589-.626 1.123H41.88zm6.907 3.394c-.2.16-.436.28-.707.36-.27.08-.595.138-.973.174a5.897 5.897 0 00-.777.107c-.988.213-1.483.74-1.483 1.576 0 .855.448 1.283 1.344 1.283.726 0 1.26-.218 1.6-.655.34-.436.61-1.1.81-1.99l.186-.855zM39.42 34.826c-.417 2.494-1.348 4.395-2.793 5.705-1.444 1.309-3.256 1.964-5.435 1.964-2.318 0-4.11-.744-5.377-2.232-1.267-1.487-1.9-3.584-1.9-6.292 0-3.313.803-6.039 2.41-8.176 1.607-2.138 3.793-3.207 6.56-3.207 2.132 0 3.831.637 5.099 1.91 1.267 1.274 1.9 2.98 1.9 5.118 0 .178-.008.338-.023.48h-4.844c-.047-1.905-.812-2.858-2.295-2.858a2.63 2.63 0 00-1.762.654c-.51.437-.904 1.002-1.182 1.697a11.542 11.542 0 00-.626 2.137c-.139.73-.208 1.452-.208 2.165 0 1.282.228 2.271.684 2.966.455.694 1.1 1.042 1.935 1.042 1.483 0 2.434-1.025 2.85-3.073h5.008z" fill="#FFBE5F"/><path fill-rule="evenodd" clip-rule="evenodd" d="M9.4 23.249c.42.908.739 3.048.594 4.314-6.841-4.014-2.282-7.955-.595-4.314zm3.882-14.6a4.403 4.403 0 00-.873-1.743c1.779.422 4.462.099 5.676-1.895C19.218 3.159 18.75.004 16.237 0c-2.236-.004-2.274 3.162.34 3.003-.907 3.77-6.373 2.591-7.458-.424-.34 6.314-6.54 9.527-6.918 15.738-.233 3.803 1.798 9.093 7.626 12.933-3.153-.216-7.946-2.371-8.937-9.862-3.18 8.89 2.741 11.736 8.6 11.176.067.02.125.455-.125.465-2.037.076-3.847.245-5.52 1.67-1.788 1.522-1.902 4.98.566 5.407 2.1.363 2.81-2.827 1.004-3.874-.916-.531 3.266-3.223 3.395-.81.105 1.94-2.43 7.477-3.173 9.552-1.683 4.698-2.144 10.144.683 13.082 2.78 2.89 7.1 2.422 8.805-.506 1.554-2.67.782-6.934-2.167-7.633-1.205-.286-2.477.18-3.12 1.521-.68 1.413-.316 3.39 1.173 3.936.879.323 1.88-.082 1.97-1.167-.533.72-1.214.798-1.724.511-.746-.42-.986-1.33-.788-2.136.3-1.228 1.303-1.794 2.257-1.596 2.027.42 2.556 3.714 1.324 5.43-1.42 1.979-4.736 2.111-6.19-.802-1.562-3.133.426-8.34 2.7-11.086 3.25-3.927 7.959-6.949 8.685-12.926.918-7.569-6.76-10.578-4.94-18.828.317 3.997 1.257 4.435 4.894 4.997 2.146.307 4.492 1.63 5.898 2.927.245.227.518-.32.472-.855 1.405-.36.397-.902-.238-1.32-1.342-.885-2.284-1.825-2.496-3.589-.378-3.162-.352-2.447-1.966-3.983-1.589-1.514-2.267-2.651-2.474-4.546-.705 1.487-2.992 2.21-5.113 2.244zm-3.209-1.97c.705.169 1.508 1.138 1.842 1.911-.557.404-1.986 2.495-2.238 3.063-.434-.325-1.3-.77-1.827-.86.803-1.237 1.752-2.72 2.223-4.115zM6.899 12.24c.673-.135 1.734.288 2.273.777a13.78 13.78 0 00-.54 2.851c-.974-.608-2.51-.897-3.529-.406C5.56 14.35 6.21 13.294 6.9 12.24zM4.49 17.867c.83-1.494 3.015-1.495 4.102-.24.036.963.17 1.91.401 2.8-1.477-.8-3.114-.493-3.997.902-.557-1.054-.687-2.346-.506-3.462z" fill="#FFBE5F"/></svg>