<svg id="svg2" xmlns="http://www.w3.org/2000/svg" xmlns:xlink="http://www.w3.org/1999/xlink" viewBox="0 0 1209.82237 295.46078">
  <defs>
    <style>
      .cls-1, .cls-4, .cls-5, .cls-6 {
        fill: none;
      }

      .cls-2 {
        clip-path: url(#clip-path);
      }

      .cls-3 {
        fill: #fcc800;
      }

      .cls-4, .cls-5 {
        stroke: #440085;
      }

      .cls-4, .cls-5, .cls-6 {
        stroke-miterlimit: 13.33333;
      }

      .cls-4 {
        stroke-width: 12px;
      }

      .cls-5 {
        stroke-width: 53.33333px;
      }

      .cls-6 {
        stroke: #fcc800;
        stroke-width: 2.66667px;
      }

      .cls-7 {
        fill: #fff;
      }
    </style>
    <clipPath id="clip-path" transform="translate(-77.55013 -494.12025)">
      <rect class="cls-1" width="1333.33325" height="1333.33325"/>
    </clipPath>
  </defs>
  <title>helalogo</title>
  <g id="g10">
    <g id="g12">
      <g class="cls-2">
        <g id="g14">
          <g id="g20">
            <path id="path22" class="cls-3" d="M104.21679,750.8789V721.32023q0-7.046,6.91467-7.04933h7.18666v-150.096h-7.18666q-6.914,0-6.91467-6.91467V527.83757q0-7.048,6.91467-7.05066h31.456a19.67967,19.67967,0,0,1,19.38934,19.524v42.98266a103.46889,103.46889,0,0,1,49.48932-13.96667h.67867q23.726,0,39.184,11.52533,18.574,13.966,18.576,40.40533V714.2709h6.78q6.914,0,6.91333,7.04933V750.8789q0,6.916-6.91333,6.916h-50.304V632.24024q0-15.458-15.99866-18.44a45.15952,45.15952,0,0,0-5.96667-.54266,49.31528,49.31528,0,0,0-16.812,3.25467q-17.358,5.966-25.62666,18.03333V757.7949H111.13146q-6.914,0-6.91467-6.916" transform="translate(-77.55013 -494.12025)"/>
          </g>
          <g id="g24">
            <path id="path26" class="cls-4" d="M104.21679,750.8789V721.32023q0-7.046,6.91467-7.04933h7.18666v-150.096h-7.18666q-6.914,0-6.91467-6.91467V527.83757q0-7.048,6.91467-7.05066h31.456a19.67967,19.67967,0,0,1,19.38934,19.524v42.98266a103.46889,103.46889,0,0,1,49.48932-13.96667h.67867q23.726,0,39.184,11.52533,18.574,13.966,18.576,40.40533V714.2709h6.78q6.914,0,6.91333,7.04933V750.8789q0,6.916-6.91333,6.916h-50.304V632.24024q0-15.458-15.99866-18.44a45.15952,45.15952,0,0,0-5.96667-.54266,49.31528,49.31528,0,0,0-16.812,3.25467q-17.358,5.966-25.62666,18.03333V757.7949H111.13146Q104.21745,757.7949,104.21679,750.8789Z" transform="translate(-77.55013 -494.12025)"/>
          </g>
          <g id="g28">
            <path id="path30" class="cls-3" d="M349.71291,644.71407h83.65733q-3.796-15.32-12.88133-23.18533-10.982-9.084-30.64134-9.08533-14.646,0-24.948,8.136-10.85,8.542-15.18667,24.13466m40.676-75.52266a94.24953,94.24953,0,0,1,36.60933,7.59333,79.78607,79.78607,0,0,1,30.37067,22.77867q11.66,14.78,17.22,35.79466a113.04272,113.04272,0,0,1,3.38933,28.74534q0,6.506-.67867,15.456-.812,6.238-6.91333,6.23733H349.71291a50.94231,50.94231,0,0,0,19.52533,23.45733,52.23993,52.23993,0,0,0,29.69334,9.084q22.64,0,37.964-15.45734a6.21952,6.21952,0,0,1,4.74533-2.03333h.94933a6.62711,6.62711,0,0,1,5.152,3.38933l15.728,26.576a8.13706,8.13706,0,0,1,1.08534,3.79467,6.60146,6.60146,0,0,1-2.848,5.15333q-26.982,21.426-62.776,21.42266a99.24906,99.24906,0,0,1-39.592-7.864,93.6128,93.6128,0,0,1-31.99867-21.82933,93.42334,93.42334,0,0,1-27.388-66.30267,96.53967,96.53967,0,0,1,20.06534-59.65866,94.42171,94.42171,0,0,1,30.37333-26.304A81.35751,81.35751,0,0,1,390.3889,569.1914" transform="translate(-77.55013 -494.12025)"/>
          </g>
          <g id="g32">
            <path id="path34" class="cls-4" d="M349.71291,644.71407h83.65733q-3.796-15.32-12.88133-23.18533-10.982-9.084-30.64134-9.08533-14.646,0-24.948,8.136Q354.04957,629.1214,349.71291,644.71407Zm40.676-75.52266a94.24953,94.24953,0,0,1,36.60933,7.59333,79.78607,79.78607,0,0,1,30.37067,22.77867q11.66,14.78,17.22,35.79466a113.04272,113.04272,0,0,1,3.38933,28.74534q0,6.506-.67867,15.456-.812,6.238-6.91333,6.23733H349.71291a50.94231,50.94231,0,0,0,19.52533,23.45733,52.23993,52.23993,0,0,0,29.69334,9.084q22.64,0,37.964-15.45734a6.21952,6.21952,0,0,1,4.74533-2.03333h.94933a6.62711,6.62711,0,0,1,5.152,3.38933l15.728,26.576a8.13706,8.13706,0,0,1,1.08534,3.79467,6.60146,6.60146,0,0,1-2.848,5.15333q-26.982,21.426-62.776,21.42266a99.24906,99.24906,0,0,1-39.592-7.864,93.6128,93.6128,0,0,1-31.99867-21.82933,93.42334,93.42334,0,0,1-27.388-66.30267,96.53967,96.53967,0,0,1,20.06534-59.65866,94.42171,94.42171,0,0,1,30.37333-26.304A81.35751,81.35751,0,0,1,390.3889,569.1914Z" transform="translate(-77.55013 -494.12025)"/>
          </g>
          <g id="g36">
            <path id="path38" class="cls-3" d="M508.43157,738.4049V564.31025h-7.18533q-6.916,0-6.91467-6.91468V527.8369q0-7.048,6.91467-7.04934h31.32133a18.56777,18.56777,0,0,1,13.69333,5.76134,18.89982,18.89982,0,0,1,5.696,13.76267V714.27024h6.77867q6.916,0,6.91466,7.05066v29.55733q0,6.916-6.91466,6.916H527.9569a18.93933,18.93933,0,0,1-13.83066-5.628,18.60408,18.60408,0,0,1-5.69467-13.76133" transform="translate(-77.55013 -494.12025)"/>
          </g>
          <g id="g40">
            <path id="path42" class="cls-4" d="M508.43157,738.4049V564.31025h-7.18533q-6.916,0-6.91467-6.91468V527.8369q0-7.048,6.91467-7.04934h31.32133a18.56777,18.56777,0,0,1,13.69333,5.76134,18.89982,18.89982,0,0,1,5.696,13.76267V714.27024h6.77867q6.916,0,6.91466,7.05066v29.55733q0,6.916-6.91466,6.916H527.9569a18.93933,18.93933,0,0,1-13.83066-5.628A18.60408,18.60408,0,0,1,508.43157,738.4049Z" transform="translate(-77.55013 -494.12025)"/>
          </g>
          <g id="g44">
            <path id="path46" class="cls-3" d="M693.72652,677.11971q-2.714.95-13.152,3.52533-7.188,2.032-18.44,5.28667a229.6606,229.6606,0,0,0-25.35333,9.89866q-5.696,3.528-8.94933,5.96667a11.42048,11.42048,0,0,0-4.47466,9.21867v.81333q.134,5.562,4.47466,8a20.1632,20.1632,0,0,0,8.67733,2.712,34.4908,34.4908,0,0,0,5.15334.272,67.15925,67.15925,0,0,0,21.28666-3.93333,74.77942,74.77942,0,0,0,16.13467-6.91467q14.642-7.862,14.64266-15.32Zm-.27067-44.47333q0-11.522-4.20266-17.22a21.02016,21.02016,0,0,0-10.71333-7.592,40.40238,40.40238,0,0,0-10.304-1.356,41.45047,41.45047,0,0,0-17.21867,3.932q-13.424,5.968-18.57466,17.62534-1.902,4.342-5.696,4.34a8.98058,8.98058,0,0,1-2.576-.40667l-27.11733-7.864a6.52015,6.52015,0,0,1-4.47467-4.068,6.274,6.274,0,0,1-.54133-2.576,7.23362,7.23362,0,0,1,.812-3.25467,80.03969,80.03969,0,0,1,22.23733-26.304,88.57172,88.57172,0,0,1,24.26933-13.016,101.14467,101.14467,0,0,1,23.45734-5.288q4.068-.406,7.864-.40666a101.80514,101.80514,0,0,1,18.576,1.76266q17.896,3.66,29.82932,14.372,15.996,15.188,16.812,42.30266l.136,86.64134h7.05066q7.048,0,7.05067,7.04933v29.55866q0,6.916-7.05067,6.916H700.64252q-6.916,0-6.916-6.916v-1.22a109.0789,109.0789,0,0,1-25.08266,8.40667,179.82651,179.82651,0,0,1-29.96534,3.66133h-2.30533q-15.592,0-27.65867-5.152-15.458-6.916-21.96666-20.74667a48.08252,48.08252,0,0,1-4.744-21.55733,54.60934,54.60934,0,0,1,.54133-8,51.61552,51.61552,0,0,1,10.576-26.44,61.619,61.619,0,0,1,17.76266-15.184,215.56279,215.56279,0,0,1,32.676-14.78q14.644-5.558,25.084-8.67734,6.1-2.034,12.40533-4.204,6.306-2.168,12.40667-4.33866" transform="translate(-77.55013 -494.12025)"/>
          </g>
          <g id="g48">
            <path id="path50" class="cls-4" d="M693.72652,677.11971q-2.714.95-13.152,3.52533-7.188,2.032-18.44,5.28667a229.6606,229.6606,0,0,0-25.35333,9.89866q-5.696,3.528-8.94933,5.96667a11.42048,11.42048,0,0,0-4.47466,9.21867v.81333q.134,5.562,4.47466,8a20.1632,20.1632,0,0,0,8.67733,2.712,34.4908,34.4908,0,0,0,5.15334.272,67.15925,67.15925,0,0,0,21.28666-3.93333,74.77942,74.77942,0,0,0,16.13467-6.91467q14.642-7.862,14.64266-15.32Zm-.27067-44.47333q0-11.522-4.20266-17.22a21.02016,21.02016,0,0,0-10.71333-7.592,40.40238,40.40238,0,0,0-10.304-1.356,41.45047,41.45047,0,0,0-17.21867,3.932q-13.424,5.968-18.57466,17.62534-1.902,4.342-5.696,4.34a8.98058,8.98058,0,0,1-2.576-.40667l-27.11733-7.864a6.52015,6.52015,0,0,1-4.47467-4.068,6.274,6.274,0,0,1-.54133-2.576,7.23362,7.23362,0,0,1,.812-3.25467,80.03969,80.03969,0,0,1,22.23733-26.304,88.57172,88.57172,0,0,1,24.26933-13.016,101.14467,101.14467,0,0,1,23.45734-5.288q4.068-.406,7.864-.40666a101.80514,101.80514,0,0,1,18.576,1.76266q17.896,3.66,29.82932,14.372,15.996,15.188,16.812,42.30266l.136,86.64134h7.05066q7.048,0,7.05067,7.04933v29.55866q0,6.916-7.05067,6.916H700.64252q-6.916,0-6.916-6.916v-1.22a109.0789,109.0789,0,0,1-25.08266,8.40667,179.82651,179.82651,0,0,1-29.96534,3.66133h-2.30533q-15.592,0-27.65867-5.152-15.458-6.916-21.96666-20.74667a48.08252,48.08252,0,0,1-4.744-21.55733,54.60934,54.60934,0,0,1,.54133-8,51.61552,51.61552,0,0,1,10.576-26.44,61.619,61.619,0,0,1,17.76266-15.184,215.56279,215.56279,0,0,1,32.676-14.78q14.644-5.558,25.084-8.67734,6.1-2.034,12.40533-4.204Q687.35518,634.817,693.45585,632.64638Z" transform="translate(-77.55013 -494.12025)"/>
          </g>
          <g id="g52">
            <path id="path54" class="cls-3" d="M104.21679,750.8789V721.32023q0-7.046,6.91467-7.04933h7.18666v-150.096h-7.18666q-6.914,0-6.91467-6.91467V527.83757q0-7.048,6.91467-7.05066h31.456a19.67967,19.67967,0,0,1,19.38934,19.524v42.98266a103.46889,103.46889,0,0,1,49.48932-13.96667h.67867q23.726,0,39.184,11.52533,18.574,13.966,18.576,40.40533V714.2709h6.78q6.914,0,6.91333,7.04933V750.8789q0,6.916-6.91333,6.916h-50.304V632.24024q0-15.458-15.99866-18.44a45.15952,45.15952,0,0,0-5.96667-.54266,49.31528,49.31528,0,0,0-16.812,3.25467q-17.358,5.966-25.62666,18.03333V757.7949H111.13146q-6.914,0-6.91467-6.916" transform="translate(-77.55013 -494.12025)"/>
          </g>
          <g id="g56">
            <path id="path58" class="cls-5" d="M104.21679,750.8789V721.32023q0-7.046,6.91467-7.04933h7.18666v-150.096h-7.18666q-6.914,0-6.91467-6.91467V527.83757q0-7.048,6.91467-7.05066h31.456a19.67967,19.67967,0,0,1,19.38934,19.524v42.98266a103.46889,103.46889,0,0,1,49.48932-13.96667h.67867q23.726,0,39.184,11.52533,18.574,13.966,18.576,40.40533V714.2709h6.78q6.914,0,6.91333,7.04933V750.8789q0,6.916-6.91333,6.916h-50.304V632.24024q0-15.458-15.99866-18.44a45.15952,45.15952,0,0,0-5.96667-.54266,49.31528,49.31528,0,0,0-16.812,3.25467q-17.358,5.966-25.62666,18.03333V757.7949H111.13146Q104.21745,757.7949,104.21679,750.8789Z" transform="translate(-77.55013 -494.12025)"/>
          </g>
          <g id="g60">
            <path id="path62" class="cls-3" d="M349.71291,644.71407h83.65733q-3.796-15.32-12.88133-23.18533-10.982-9.084-30.64134-9.08533-14.646,0-24.948,8.136-10.85,8.542-15.18667,24.13466m40.676-75.52266a94.24953,94.24953,0,0,1,36.60933,7.59333,79.78607,79.78607,0,0,1,30.37067,22.77867q11.66,14.78,17.22,35.79466a113.04272,113.04272,0,0,1,3.38933,28.74534q0,6.506-.67867,15.456-.812,6.238-6.91333,6.23733H349.71291a50.94231,50.94231,0,0,0,19.52533,23.45733,52.23993,52.23993,0,0,0,29.69334,9.084q22.64,0,37.964-15.45734a6.21952,6.21952,0,0,1,4.74533-2.03333h.94933a6.62711,6.62711,0,0,1,5.152,3.38933l15.728,26.576a8.13706,8.13706,0,0,1,1.08534,3.79467,6.60146,6.60146,0,0,1-2.848,5.15333q-26.982,21.426-62.776,21.42266a99.24906,99.24906,0,0,1-39.592-7.864,93.6128,93.6128,0,0,1-31.99867-21.82933,93.42334,93.42334,0,0,1-27.388-66.30267,96.53967,96.53967,0,0,1,20.06534-59.65866,94.42171,94.42171,0,0,1,30.37333-26.304A81.35751,81.35751,0,0,1,390.3889,569.1914" transform="translate(-77.55013 -494.12025)"/>
          </g>
          <g id="g64">
            <path id="path66" class="cls-5" d="M349.71291,644.71407h83.65733q-3.796-15.32-12.88133-23.18533-10.982-9.084-30.64134-9.08533-14.646,0-24.948,8.136Q354.04957,629.1214,349.71291,644.71407Zm40.676-75.52266a94.24953,94.24953,0,0,1,36.60933,7.59333,79.78607,79.78607,0,0,1,30.37067,22.77867q11.66,14.78,17.22,35.79466a113.04272,113.04272,0,0,1,3.38933,28.74534q0,6.506-.67867,15.456-.812,6.238-6.91333,6.23733H349.71291a50.94231,50.94231,0,0,0,19.52533,23.45733,52.23993,52.23993,0,0,0,29.69334,9.084q22.64,0,37.964-15.45734a6.21952,6.21952,0,0,1,4.74533-2.03333h.94933a6.62711,6.62711,0,0,1,5.152,3.38933l15.728,26.576a8.13706,8.13706,0,0,1,1.08534,3.79467,6.60146,6.60146,0,0,1-2.848,5.15333q-26.982,21.426-62.776,21.42266a99.24906,99.24906,0,0,1-39.592-7.864,93.6128,93.6128,0,0,1-31.99867-21.82933,93.42334,93.42334,0,0,1-27.388-66.30267,96.53967,96.53967,0,0,1,20.06534-59.65866,94.42171,94.42171,0,0,1,30.37333-26.304A81.35751,81.35751,0,0,1,390.3889,569.1914Z" transform="translate(-77.55013 -494.12025)"/>
          </g>
          <g id="g68">
            <path id="path70" class="cls-3" d="M508.43157,738.4049V564.31025h-7.18533q-6.916,0-6.91467-6.91468V527.8369q0-7.048,6.91467-7.04934h31.32133a18.56777,18.56777,0,0,1,13.69333,5.76134,18.89982,18.89982,0,0,1,5.696,13.76267V714.27024h6.77867q6.916,0,6.91466,7.05066v29.55733q0,6.916-6.91466,6.916H527.9569a18.93933,18.93933,0,0,1-13.83066-5.628,18.60408,18.60408,0,0,1-5.69467-13.76133" transform="translate(-77.55013 -494.12025)"/>
          </g>
          <g id="g72">
            <path id="path74" class="cls-5" d="M508.43157,738.4049V564.31025h-7.18533q-6.916,0-6.91467-6.91468V527.8369q0-7.048,6.91467-7.04934h31.32133a18.56777,18.56777,0,0,1,13.69333,5.76134,18.89982,18.89982,0,0,1,5.696,13.76267V714.27024h6.77867q6.916,0,6.91466,7.05066v29.55733q0,6.916-6.91466,6.916H527.9569a18.93933,18.93933,0,0,1-13.83066-5.628A18.60408,18.60408,0,0,1,508.43157,738.4049Z" transform="translate(-77.55013 -494.12025)"/>
          </g>
          <g id="g76">
            <path id="path78" class="cls-3" d="M693.72652,677.11971q-2.714.95-13.152,3.52533-7.188,2.032-18.44,5.28667a229.6606,229.6606,0,0,0-25.35333,9.89866q-5.696,3.528-8.94933,5.96667a11.42048,11.42048,0,0,0-4.47466,9.21867v.81333q.134,5.562,4.47466,8a20.1632,20.1632,0,0,0,8.67733,2.712,34.4908,34.4908,0,0,0,5.15334.272,67.15925,67.15925,0,0,0,21.28666-3.93333,74.77942,74.77942,0,0,0,16.13467-6.91467q14.642-7.862,14.64266-15.32Zm-.27067-44.47333q0-11.522-4.20266-17.22a21.02016,21.02016,0,0,0-10.71333-7.592,40.40238,40.40238,0,0,0-10.304-1.356,41.45047,41.45047,0,0,0-17.21867,3.932q-13.424,5.968-18.57466,17.62534-1.902,4.342-5.696,4.34a8.98058,8.98058,0,0,1-2.576-.40667l-27.11733-7.864a6.52015,6.52015,0,0,1-4.47467-4.068,6.274,6.274,0,0,1-.54133-2.576,7.23362,7.23362,0,0,1,.812-3.25467,80.03969,80.03969,0,0,1,22.23733-26.304,88.57172,88.57172,0,0,1,24.26933-13.016,101.14467,101.14467,0,0,1,23.45734-5.288q4.068-.406,7.864-.40666a101.80514,101.80514,0,0,1,18.576,1.76266q17.896,3.66,29.82932,14.372,15.996,15.188,16.812,42.30266l.136,86.64134h7.05066q7.048,0,7.05067,7.04933v29.55866q0,6.916-7.05067,6.916H700.64252q-6.916,0-6.916-6.916v-1.22a109.0789,109.0789,0,0,1-25.08266,8.40667,179.82651,179.82651,0,0,1-29.96534,3.66133h-2.30533q-15.592,0-27.65867-5.152-15.458-6.916-21.96666-20.74667a48.08252,48.08252,0,0,1-4.744-21.55733,54.60934,54.60934,0,0,1,.54133-8,51.61552,51.61552,0,0,1,10.576-26.44,61.619,61.619,0,0,1,17.76266-15.184,215.56279,215.56279,0,0,1,32.676-14.78q14.644-5.558,25.084-8.67734,6.1-2.034,12.40533-4.204,6.306-2.168,12.40667-4.33866" transform="translate(-77.55013 -494.12025)"/>
          </g>
          <g id="g80">
            <path id="path82" class="cls-5" d="M693.72652,677.11971q-2.714.95-13.152,3.52533-7.188,2.032-18.44,5.28667a229.6606,229.6606,0,0,0-25.35333,9.89866q-5.696,3.528-8.94933,5.96667a11.42048,11.42048,0,0,0-4.47466,9.21867v.81333q.134,5.562,4.47466,8a20.1632,20.1632,0,0,0,8.67733,2.712,34.4908,34.4908,0,0,0,5.15334.272,67.15925,67.15925,0,0,0,21.28666-3.93333,74.77942,74.77942,0,0,0,16.13467-6.91467q14.642-7.862,14.64266-15.32Zm-.27067-44.47333q0-11.522-4.20266-17.22a21.02016,21.02016,0,0,0-10.71333-7.592,40.40238,40.40238,0,0,0-10.304-1.356,41.45047,41.45047,0,0,0-17.21867,3.932q-13.424,5.968-18.57466,17.62534-1.902,4.342-5.696,4.34a8.98058,8.98058,0,0,1-2.576-.40667l-27.11733-7.864a6.52015,6.52015,0,0,1-4.47467-4.068,6.274,6.274,0,0,1-.54133-2.576,7.23362,7.23362,0,0,1,.812-3.25467,80.03969,80.03969,0,0,1,22.23733-26.304,88.57172,88.57172,0,0,1,24.26933-13.016,101.14467,101.14467,0,0,1,23.45734-5.288q4.068-.406,7.864-.40666a101.80514,101.80514,0,0,1,18.576,1.76266q17.896,3.66,29.82932,14.372,15.996,15.188,16.812,42.30266l.136,86.64134h7.05066q7.048,0,7.05067,7.04933v29.55866q0,6.916-7.05067,6.916H700.64252q-6.916,0-6.916-6.916v-1.22a109.0789,109.0789,0,0,1-25.08266,8.40667,179.82651,179.82651,0,0,1-29.96534,3.66133h-2.30533q-15.592,0-27.65867-5.152-15.458-6.916-21.96666-20.74667a48.08252,48.08252,0,0,1-4.744-21.55733,54.60934,54.60934,0,0,1,.54133-8,51.61552,51.61552,0,0,1,10.576-26.44,61.619,61.619,0,0,1,17.76266-15.184,215.56279,215.56279,0,0,1,32.676-14.78q14.644-5.558,25.084-8.67734,6.1-2.034,12.40533-4.204Q687.35518,634.817,693.45585,632.64638Z" transform="translate(-77.55013 -494.12025)"/>
          </g>
          <g id="g84">
            <path id="path86" class="cls-3" d="M104.21679,750.8789V721.32023q0-7.046,6.91467-7.04933h7.18666v-150.096h-7.18666q-6.914,0-6.91467-6.91467V527.83757q0-7.048,6.91467-7.05066h31.456a19.67967,19.67967,0,0,1,19.38934,19.524v42.98266a103.46889,103.46889,0,0,1,49.48932-13.96667h.67867q23.726,0,39.184,11.52533,18.574,13.966,18.576,40.40533V714.2709h6.78q6.914,0,6.91333,7.04933V750.8789q0,6.916-6.91333,6.916h-50.304V632.24024q0-15.458-15.99866-18.44a45.15952,45.15952,0,0,0-5.96667-.54266,49.31528,49.31528,0,0,0-16.812,3.25467q-17.358,5.966-25.62666,18.03333V757.7949H111.13146q-6.914,0-6.91467-6.916" transform="translate(-77.55013 -494.12025)"/>
          </g>
          <g id="g88">
            <path id="path90" class="cls-6" d="M104.21679,750.8789V721.32023q0-7.046,6.91467-7.04933h7.18666v-150.096h-7.18666q-6.914,0-6.91467-6.91467V527.83757q0-7.048,6.91467-7.05066h31.456a19.67967,19.67967,0,0,1,19.38934,19.524v42.98266a103.46889,103.46889,0,0,1,49.48932-13.96667h.67867q23.726,0,39.184,11.52533,18.574,13.966,18.576,40.40533V714.2709h6.78q6.914,0,6.91333,7.04933V750.8789q0,6.916-6.91333,6.916h-50.304V632.24024q0-15.458-15.99866-18.44a45.15952,45.15952,0,0,0-5.96667-.54266,49.31528,49.31528,0,0,0-16.812,3.25467q-17.358,5.966-25.62666,18.03333V757.7949H111.13146Q104.21745,757.7949,104.21679,750.8789Z" transform="translate(-77.55013 -494.12025)"/>
          </g>
          <g id="g92">
            <path id="path94" class="cls-3" d="M349.71291,644.71407h83.65733q-3.796-15.32-12.88133-23.18533-10.982-9.084-30.64134-9.08533-14.646,0-24.948,8.136-10.85,8.542-15.18667,24.13466m40.676-75.52266a94.24953,94.24953,0,0,1,36.60933,7.59333,79.78607,79.78607,0,0,1,30.37067,22.77867q11.66,14.78,17.22,35.79466a113.04272,113.04272,0,0,1,3.38933,28.74534q0,6.506-.67867,15.456-.812,6.238-6.91333,6.23733H349.71291a50.94231,50.94231,0,0,0,19.52533,23.45733,52.23993,52.23993,0,0,0,29.69334,9.084q22.64,0,37.964-15.45734a6.21952,6.21952,0,0,1,4.74533-2.03333h.94933a6.62711,6.62711,0,0,1,5.152,3.38933l15.728,26.576a8.13706,8.13706,0,0,1,1.08534,3.79467,6.60146,6.60146,0,0,1-2.848,5.15333q-26.982,21.426-62.776,21.42266a99.24906,99.24906,0,0,1-39.592-7.864,93.6128,93.6128,0,0,1-31.99867-21.82933,93.42334,93.42334,0,0,1-27.388-66.30267,96.53967,96.53967,0,0,1,20.06534-59.65866,94.42171,94.42171,0,0,1,30.37333-26.304A81.35751,81.35751,0,0,1,390.3889,569.1914" transform="translate(-77.55013 -494.12025)"/>
          </g>
          <g id="g96">
            <path id="path98" class="cls-6" d="M349.71291,644.71407h83.65733q-3.796-15.32-12.88133-23.18533-10.982-9.084-30.64134-9.08533-14.646,0-24.948,8.136Q354.04957,629.1214,349.71291,644.71407Zm40.676-75.52266a94.24953,94.24953,0,0,1,36.60933,7.59333,79.78607,79.78607,0,0,1,30.37067,22.77867q11.66,14.78,17.22,35.79466a113.04272,113.04272,0,0,1,3.38933,28.74534q0,6.506-.67867,15.456-.812,6.238-6.91333,6.23733H349.71291a50.94231,50.94231,0,0,0,19.52533,23.45733,52.23993,52.23993,0,0,0,29.69334,9.084q22.64,0,37.964-15.45734a6.21952,6.21952,0,0,1,4.74533-2.03333h.94933a6.62711,6.62711,0,0,1,5.152,3.38933l15.728,26.576a8.13706,8.13706,0,0,1,1.08534,3.79467,6.60146,6.60146,0,0,1-2.848,5.15333q-26.982,21.426-62.776,21.42266a99.24906,99.24906,0,0,1-39.592-7.864,93.6128,93.6128,0,0,1-31.99867-21.82933,93.42334,93.42334,0,0,1-27.388-66.30267,96.53967,96.53967,0,0,1,20.06534-59.65866,94.42171,94.42171,0,0,1,30.37333-26.304A81.35751,81.35751,0,0,1,390.3889,569.1914Z" transform="translate(-77.55013 -494.12025)"/>
          </g>
          <g id="g100">
            <path id="path102" class="cls-3" d="M508.43157,738.4049V564.31025h-7.18533q-6.916,0-6.91467-6.91468V527.8369q0-7.048,6.91467-7.04934h31.32133a18.56777,18.56777,0,0,1,13.69333,5.76134,18.89982,18.89982,0,0,1,5.696,13.76267V714.27024h6.77867q6.916,0,6.91466,7.05066v29.55733q0,6.916-6.91466,6.916H527.9569a18.93933,18.93933,0,0,1-13.83066-5.628,18.60408,18.60408,0,0,1-5.69467-13.76133" transform="translate(-77.55013 -494.12025)"/>
          </g>
          <g id="g104">
            <path id="path106" class="cls-6" d="M508.43157,738.4049V564.31025h-7.18533q-6.916,0-6.91467-6.91468V527.8369q0-7.048,6.91467-7.04934h31.32133a18.56777,18.56777,0,0,1,13.69333,5.76134,18.89982,18.89982,0,0,1,5.696,13.76267V714.27024h6.77867q6.916,0,6.91466,7.05066v29.55733q0,6.916-6.91466,6.916H527.9569a18.93933,18.93933,0,0,1-13.83066-5.628A18.60408,18.60408,0,0,1,508.43157,738.4049Z" transform="translate(-77.55013 -494.12025)"/>
          </g>
          <g id="g108">
            <path id="path110" class="cls-3" d="M693.72652,677.11971q-2.714.95-13.152,3.52533-7.188,2.032-18.44,5.28667a229.6606,229.6606,0,0,0-25.35333,9.89866q-5.696,3.528-8.94933,5.96667a11.42048,11.42048,0,0,0-4.47466,9.21867v.81333q.134,5.562,4.47466,8a20.1632,20.1632,0,0,0,8.67733,2.712,34.4908,34.4908,0,0,0,5.15334.272,67.15925,67.15925,0,0,0,21.28666-3.93333,74.77942,74.77942,0,0,0,16.13467-6.91467q14.642-7.862,14.64266-15.32Zm-.27067-44.47333q0-11.522-4.20266-17.22a21.02016,21.02016,0,0,0-10.71333-7.592,40.40238,40.40238,0,0,0-10.304-1.356,41.45047,41.45047,0,0,0-17.21867,3.932q-13.424,5.968-18.57466,17.62534-1.902,4.342-5.696,4.34a8.98058,8.98058,0,0,1-2.576-.40667l-27.11733-7.864a6.52015,6.52015,0,0,1-4.47467-4.068,6.274,6.274,0,0,1-.54133-2.576,7.23362,7.23362,0,0,1,.812-3.25467,80.03969,80.03969,0,0,1,22.23733-26.304,88.57172,88.57172,0,0,1,24.26933-13.016,101.14467,101.14467,0,0,1,23.45734-5.288q4.068-.406,7.864-.40666a101.80514,101.80514,0,0,1,18.576,1.76266q17.896,3.66,29.82932,14.372,15.996,15.188,16.812,42.30266l.136,86.64134h7.05066q7.048,0,7.05067,7.04933v29.55866q0,6.916-7.05067,6.916H700.64252q-6.916,0-6.916-6.916v-1.22a109.0789,109.0789,0,0,1-25.08266,8.40667,179.82651,179.82651,0,0,1-29.96534,3.66133h-2.30533q-15.592,0-27.65867-5.152-15.458-6.916-21.96666-20.74667a48.08252,48.08252,0,0,1-4.744-21.55733,54.60934,54.60934,0,0,1,.54133-8,51.61552,51.61552,0,0,1,10.576-26.44,61.619,61.619,0,0,1,17.76266-15.184,215.56279,215.56279,0,0,1,32.676-14.78q14.644-5.558,25.084-8.67734,6.1-2.034,12.40533-4.204,6.306-2.168,12.40667-4.33866" transform="translate(-77.55013 -494.12025)"/>
          </g>
          <g id="g112">
            <path id="path114" class="cls-6" d="M693.72652,677.11971q-2.714.95-13.152,3.52533-7.188,2.032-18.44,5.28667a229.6606,229.6606,0,0,0-25.35333,9.89866q-5.696,3.528-8.94933,5.96667a11.42048,11.42048,0,0,0-4.47466,9.21867v.81333q.134,5.562,4.47466,8a20.1632,20.1632,0,0,0,8.67733,2.712,34.4908,34.4908,0,0,0,5.15334.272,67.15925,67.15925,0,0,0,21.28666-3.93333,74.77942,74.77942,0,0,0,16.13467-6.91467q14.642-7.862,14.64266-15.32Zm-.27067-44.47333q0-11.522-4.20266-17.22a21.02016,21.02016,0,0,0-10.71333-7.592,40.40238,40.40238,0,0,0-10.304-1.356,41.45047,41.45047,0,0,0-17.21867,3.932q-13.424,5.968-18.57466,17.62534-1.902,4.342-5.696,4.34a8.98058,8.98058,0,0,1-2.576-.40667l-27.11733-7.864a6.52015,6.52015,0,0,1-4.47467-4.068,6.274,6.274,0,0,1-.54133-2.576,7.23362,7.23362,0,0,1,.812-3.25467,80.03969,80.03969,0,0,1,22.23733-26.304,88.57172,88.57172,0,0,1,24.26933-13.016,101.14467,101.14467,0,0,1,23.45734-5.288q4.068-.406,7.864-.40666a101.80514,101.80514,0,0,1,18.576,1.76266q17.896,3.66,29.82932,14.372,15.996,15.188,16.812,42.30266l.136,86.64134h7.05066q7.048,0,7.05067,7.04933v29.55866q0,6.916-7.05067,6.916H700.64252q-6.916,0-6.916-6.916v-1.22a109.0789,109.0789,0,0,1-25.08266,8.40667,179.82651,179.82651,0,0,1-29.96534,3.66133h-2.30533q-15.592,0-27.65867-5.152-15.458-6.916-21.96666-20.74667a48.08252,48.08252,0,0,1-4.744-21.55733,54.60934,54.60934,0,0,1,.54133-8,51.61552,51.61552,0,0,1,10.576-26.44,61.619,61.619,0,0,1,17.76266-15.184,215.56279,215.56279,0,0,1,32.676-14.78q14.644-5.558,25.084-8.67734,6.1-2.034,12.40533-4.204Q687.35518,634.817,693.45585,632.64638Z" transform="translate(-77.55013 -494.12025)"/>
          </g>
          <g id="g116">
            <path id="path118" class="cls-3" d="M868.59891,721.082q21.882-1.328,35.78666-8.34267,15.716-7.254,21.76267-22.12533,4.108-9.184,4.11067-22.608v-2.77867q-.848-14.75-7.97867-22.972-7.256-8.342-19.46667-8.94667h-.72533a38.87,38.87,0,0,0-17.89333,4.59466,39.36511,39.36511,0,0,0-15.596,13.78267Zm-51.50267,32.64266v-26.356q0-6.286,6.16534-6.28666h6.408V587.366h-6.408q-6.166,0-6.16534-6.16533v-26.356q0-6.286,6.16534-6.28667h27.928a17.544,17.544,0,0,1,17.40933,17.40934v36.512q19.224-11.002,38.20533-11.00266h1.32933q25.268.606,42.19467,18.49733a74.54246,74.54246,0,0,1,14.62932,24.664,91.08664,91.08664,0,0,1,4.836,30.10533V667.886a115.81969,115.81969,0,0,1-4.352,28.29066,83.18851,83.18851,0,0,1-15.23467,29.25867,81.66675,81.66675,0,0,1-19.22266,17.04666,95.97292,95.97292,0,0,1-27.20267,12.08934,135.7563,135.7563,0,0,1-36.14933,5.19866q-4.474.122-26.96.12H823.26158q-6.166,0-6.16534-6.16533" transform="translate(-77.55013 -494.12025)"/>
          </g>
          <g id="g120">
            <path id="path122" class="cls-5" d="M868.59891,721.082q21.882-1.328,35.78666-8.34267,15.716-7.254,21.76267-22.12533,4.108-9.184,4.11067-22.608v-2.77867q-.848-14.75-7.97867-22.972-7.256-8.342-19.46667-8.94667h-.72533a38.87,38.87,0,0,0-17.89333,4.59466,39.36511,39.36511,0,0,0-15.596,13.78267Zm-51.50267,32.64266v-26.356q0-6.286,6.16534-6.28666h6.408V587.366h-6.408q-6.166,0-6.16534-6.16533v-26.356q0-6.286,6.16534-6.28667h27.928a17.544,17.544,0,0,1,17.40933,17.40934v36.512q19.224-11.002,38.20533-11.00266h1.32933q25.268.606,42.19467,18.49733a74.54246,74.54246,0,0,1,14.62932,24.664,91.08664,91.08664,0,0,1,4.836,30.10533V667.886a115.81969,115.81969,0,0,1-4.352,28.29066,83.18851,83.18851,0,0,1-15.23467,29.25867,81.66675,81.66675,0,0,1-19.22266,17.04666,95.97292,95.97292,0,0,1-27.20267,12.08934,135.7563,135.7563,0,0,1-36.14933,5.19866q-4.474.122-26.96.12H823.26158Q817.09558,759.88994,817.09624,753.72461Z" transform="translate(-77.55013 -494.12025)"/>
          </g>
          <g id="g124">
            <path id="path126" class="cls-3" d="M1028.74473,659.06051h74.596q-3.386-13.66-11.48533-20.67467-9.792-8.098-27.324-8.1-13.056,0-22.24534,7.25334-9.674,7.618-13.54133,21.52133m36.27066-67.34133a84.06621,84.06621,0,0,1,32.644,6.76933,71.16807,71.16807,0,0,1,27.08,20.312q10.396,13.18,15.35467,31.91733a100.82429,100.82429,0,0,1,3.02266,25.63066q0,5.804-.604,13.78267-.726,5.562-6.16667,5.56133H1028.74473a45.429,45.429,0,0,0,17.41067,20.916,46.58193,46.58193,0,0,0,26.476,8.1q20.19,0,33.85333-13.78266a5.54725,5.54725,0,0,1,4.232-1.812h.84533a5.90907,5.90907,0,0,1,4.59466,3.02133l14.024,23.69733a7.259,7.259,0,0,1,.96666,3.38534,5.88231,5.88231,0,0,1-2.53866,4.59333q-24.06,19.104-55.97733,19.10266a88.50162,88.50162,0,0,1-35.30267-7.01333,83.4779,83.4779,0,0,1-28.532-19.464,83.297,83.297,0,0,1-24.42133-59.12,86.07721,86.07721,0,0,1,17.89333-53.196,84.17976,84.17976,0,0,1,27.08-23.45466,72.55291,72.55291,0,0,1,35.66666-8.94667" transform="translate(-77.55013 -494.12025)"/>
          </g>
          <g id="g128">
            <path id="path130" class="cls-5" d="M1028.74473,659.06051h74.596q-3.386-13.66-11.48533-20.67467-9.792-8.098-27.324-8.1-13.056,0-22.24534,7.25334Q1032.61207,645.15717,1028.74473,659.06051Zm36.27066-67.34133a84.06621,84.06621,0,0,1,32.644,6.76933,71.16807,71.16807,0,0,1,27.08,20.312q10.396,13.18,15.35467,31.91733a100.82429,100.82429,0,0,1,3.02266,25.63066q0,5.804-.604,13.78267-.726,5.562-6.16667,5.56133H1028.74473a45.429,45.429,0,0,0,17.41067,20.916,46.58193,46.58193,0,0,0,26.476,8.1q20.19,0,33.85333-13.78266a5.54725,5.54725,0,0,1,4.232-1.812h.84533a5.90907,5.90907,0,0,1,4.59466,3.02133l14.024,23.69733a7.259,7.259,0,0,1,.96666,3.38534,5.88231,5.88231,0,0,1-2.53866,4.59333q-24.06,19.104-55.97733,19.10266a88.50162,88.50162,0,0,1-35.30267-7.01333,83.4779,83.4779,0,0,1-28.532-19.464,83.297,83.297,0,0,1-24.42133-59.12,86.07721,86.07721,0,0,1,17.89333-53.196,84.17976,84.17976,0,0,1,27.08-23.45466,72.55291,72.55291,0,0,1,35.66666-8.94667Z" transform="translate(-77.55013 -494.12025)"/>
          </g>
          <g id="g132">
            <path id="path134" class="cls-3" d="M1209.20183,716.125q.12,7.014,2.90267,10.03466a7.89651,7.89651,0,0,0,6.16533,2.54,7.22554,7.22554,0,0,0,1.57067-.12133,29.21575,29.21575,0,0,0,9.91466-3.144,59.37471,59.37471,0,0,0,9.672-5.68133,3.2558,3.2558,0,0,1,.84667-.60534,3.196,3.196,0,0,0,.84534-.60533,6.0989,6.0989,0,0,1,3.86933-1.32933,4.58658,4.58658,0,0,1,1.088.12133,5.90585,5.90585,0,0,1,4.11067,3.02267l9.55066,16.804a6.58645,6.58645,0,0,1,.968,3.26533,5.72642,5.72642,0,0,1-2.176,4.352,68.414,68.414,0,0,1-20.18933,13.3,66.465,66.465,0,0,1-23.81867,4.836q-15.958,0-26.47733-6.52934a31.47273,31.47273,0,0,1-12.81466-14.74933q-4.96-10.156-4.95734-25.51066V631.737h-6.408q-6.166,0-6.16533-6.16666V601.02771q0-6.166,6.16533-6.16533h6.408V554.84505q0-6.286,6.16667-6.28667h26.59733q6.166,0,6.16533,6.28667v40.01733h17.77333q6.166,0,6.16534,6.16533v24.54267q0,6.166-6.16534,6.16666h-17.77333Z" transform="translate(-77.55013 -494.12025)"/>
          </g>
          <g id="g136">
            <path id="path138" class="cls-5" d="M1209.20183,716.125q.12,7.014,2.90267,10.03466a7.89651,7.89651,0,0,0,6.16533,2.54,7.22554,7.22554,0,0,0,1.57067-.12133,29.21575,29.21575,0,0,0,9.91466-3.144,59.37471,59.37471,0,0,0,9.672-5.68133,3.2558,3.2558,0,0,1,.84667-.60534,3.196,3.196,0,0,0,.84534-.60533,6.0989,6.0989,0,0,1,3.86933-1.32933,4.58658,4.58658,0,0,1,1.088.12133,5.90585,5.90585,0,0,1,4.11067,3.02267l9.55066,16.804a6.58645,6.58645,0,0,1,.968,3.26533,5.72642,5.72642,0,0,1-2.176,4.352,68.414,68.414,0,0,1-20.18933,13.3,66.465,66.465,0,0,1-23.81867,4.836q-15.958,0-26.47733-6.52934a31.47273,31.47273,0,0,1-12.81466-14.74933q-4.96-10.156-4.95734-25.51066V631.737h-6.408q-6.166,0-6.16533-6.16666V601.02771q0-6.166,6.16533-6.16533h6.408V554.84505q0-6.286,6.16667-6.28667h26.59733q6.166,0,6.16533,6.28667v40.01733h17.77333q6.166,0,6.16534,6.16533v24.54267q0,6.166-6.16534,6.16666h-17.77333Z" transform="translate(-77.55013 -494.12025)"/>
          </g>
          <g id="g140">
            <path id="path142" class="cls-7" d="M868.59891,721.082q21.882-1.328,35.78666-8.34267,15.716-7.254,21.76267-22.12533,4.108-9.184,4.11067-22.608v-2.77867q-.848-14.75-7.97867-22.972-7.256-8.342-19.46667-8.94667h-.72533a38.87,38.87,0,0,0-17.89333,4.59466,39.36511,39.36511,0,0,0-15.596,13.78267Zm-51.50267,32.64266v-26.356q0-6.286,6.16534-6.28666h6.408V587.366h-6.408q-6.166,0-6.16534-6.16533v-26.356q0-6.286,6.16534-6.28667h27.928a17.544,17.544,0,0,1,17.40933,17.40934v36.512q19.224-11.002,38.20533-11.00266h1.32933q25.268.606,42.19467,18.49733a74.54246,74.54246,0,0,1,14.62932,24.664,91.08664,91.08664,0,0,1,4.836,30.10533V667.886a115.81969,115.81969,0,0,1-4.352,28.29066,83.18851,83.18851,0,0,1-15.23467,29.25867,81.66675,81.66675,0,0,1-19.22266,17.04666,95.97292,95.97292,0,0,1-27.20267,12.08934,135.7563,135.7563,0,0,1-36.14933,5.19866q-4.474.122-26.96.12H823.26158q-6.166,0-6.16534-6.16533" transform="translate(-77.55013 -494.12025)"/>
          </g>
          <g id="g144">
            <path id="path146" class="cls-7" d="M1028.74473,659.06051h74.596q-3.386-13.66-11.48533-20.67467-9.792-8.098-27.324-8.1-13.056,0-22.24534,7.25334-9.674,7.618-13.54133,21.52133m36.27066-67.34133a84.06621,84.06621,0,0,1,32.644,6.76933,71.16807,71.16807,0,0,1,27.08,20.312q10.396,13.18,15.35467,31.91733a100.82429,100.82429,0,0,1,3.02266,25.63066q0,5.804-.604,13.78267-.726,5.562-6.16667,5.56133H1028.74473a45.429,45.429,0,0,0,17.41067,20.916,46.58193,46.58193,0,0,0,26.476,8.1q20.19,0,33.85333-13.78266a5.54725,5.54725,0,0,1,4.232-1.812h.84533a5.90907,5.90907,0,0,1,4.59466,3.02133l14.024,23.69733a7.259,7.259,0,0,1,.96666,3.38534,5.88231,5.88231,0,0,1-2.53866,4.59333q-24.06,19.104-55.97733,19.10266a88.50162,88.50162,0,0,1-35.30267-7.01333,83.4779,83.4779,0,0,1-28.532-19.464,83.297,83.297,0,0,1-24.42133-59.12,86.07721,86.07721,0,0,1,17.89333-53.196,84.17976,84.17976,0,0,1,27.08-23.45466,72.55291,72.55291,0,0,1,35.66666-8.94667" transform="translate(-77.55013 -494.12025)"/>
          </g>
          <g id="g148">
            <path id="path150" class="cls-7" d="M1209.20183,716.125q.12,7.014,2.90267,10.03466a7.89651,7.89651,0,0,0,6.16533,2.54,7.22554,7.22554,0,0,0,1.57067-.12133,29.21575,29.21575,0,0,0,9.91466-3.144,59.37471,59.37471,0,0,0,9.672-5.68133,3.2558,3.2558,0,0,1,.84667-.60534,3.196,3.196,0,0,0,.84534-.60533,6.0989,6.0989,0,0,1,3.86933-1.32933,4.58658,4.58658,0,0,1,1.088.12133,5.90585,5.90585,0,0,1,4.11067,3.02267l9.55066,16.804a6.58645,6.58645,0,0,1,.968,3.26533,5.72642,5.72642,0,0,1-2.176,4.352,68.414,68.414,0,0,1-20.18933,13.3,66.465,66.465,0,0,1-23.81867,4.836q-15.958,0-26.47733-6.52934a31.47273,31.47273,0,0,1-12.81466-14.74933q-4.96-10.156-4.95734-25.51066V631.737h-6.408q-6.166,0-6.16533-6.16666V601.02771q0-6.166,6.16533-6.16533h6.408V554.84505q0-6.286,6.16667-6.28667h26.59733q6.166,0,6.16533,6.28667v40.01733h17.77333q6.166,0,6.16534,6.16533v24.54267q0,6.166-6.16534,6.16666h-17.77333Z" transform="translate(-77.55013 -494.12025)"/>
          </g>
        </g>
      </g>
    </g>
  </g>
</svg>
